<?xml version="1.0" encoding="utf-8"?>
<!-- Generator: Adobe Illustrator 19.0.0, SVG Export Plug-In . SVG Version: 6.00 Build 0)  -->
<svg version="1.1" id="Layer_1" xmlns="http://www.w3.org/2000/svg" xmlns:xlink="http://www.w3.org/1999/xlink" x="0px" y="0px"
	 viewBox="0 0 36 36" style="enable-background:new 0 0 36 36;" xml:space="preserve">
<style type="text/css">
	.st0{fill:#4400FF;}
	.st1{fill:#FFFFFF;}
</style>
<circle id="XMLID_22_" class="st0" cx="18.3" cy="18.3" r="17.8"/>
<g id="Layer_42">
	<path id="XMLID_18_" class="st1" d="M11.6,25.4c-0.3,0-0.6-0.2-0.6-0.6c0,0,0,0,0-0.1l0.4-3.9c0-0.1,0.1-0.2,0.2-0.3l9.2-9.2
		c0.7-0.7,1.8-0.7,2.5,0c0,0,0,0,0,0l1.7,1.7c0.7,0.7,0.7,1.8,0,2.5c0,0,0,0,0,0l-9.2,9.2c-0.1,0.1-0.2,0.1-0.3,0.2L11.6,25.4
		L11.6,25.4z M15.5,24.4L15.5,24.4z M12.5,21.2l-0.3,3l3-0.3l9.1-9.1c0.3-0.3,0.3-0.7,0-1c0,0,0,0,0,0l-1.8-1.8
		c-0.3-0.3-0.7-0.3-1,0c0,0,0,0,0,0L12.5,21.2z"/>
	<path id="XMLID_17_" class="st1" d="M23.4,17.1c-0.1,0-0.3-0.1-0.4-0.2l-3.5-3.5c-0.2-0.2-0.2-0.6,0-0.8s0.6-0.2,0.8,0l3.5,3.5
		c0.2,0.2,0.2,0.6,0,0.8c0,0,0,0,0,0C23.7,17.1,23.5,17.1,23.4,17.1z"/>
	
		<rect id="XMLID_16_" x="14.6" y="18.2" transform="matrix(-0.7071 0.7071 -0.7071 -0.7071 43.4536 19.4661)" class="st1" width="6.2" height="1.1"/>
	<path id="XMLID_15_" class="st1" d="M27.3,25.4h-9c-0.3,0-0.6-0.3-0.6-0.6s0.3-0.6,0.6-0.6h9c0.3,0,0.6,0.3,0.6,0.6
		S27.6,25.4,27.3,25.4z"/>
</g>
</svg>
