<?xml version="1.0" encoding="utf-8"?>
<!-- Generator: Adobe Illustrator 19.0.0, SVG Export Plug-In . SVG Version: 6.00 Build 0)  -->
<svg version="1.1" id="Layer_1" xmlns="http://www.w3.org/2000/svg" xmlns:xlink="http://www.w3.org/1999/xlink" x="0px" y="0px"
	 viewBox="0 0 48 48" style="enable-background:new 0 0 48 48;" xml:space="preserve">
<style type="text/css">
	.st0{fill:#D7C9E3;}
	.st1{fill:#C2ACD3;}
	.st2{fill:#5A3C97;}
	.st3{fill:#FFFFFF;}
</style>
<g id="XMLID_1_">
	<circle class="st0" cx="24.3" cy="23.6" r="22.4"/>
	<circle class="st1" cx="24.3" cy="23.6" r="19.1"/>
	<circle class="st2" cx="24.3" cy="23.6" r="15.4"/>
	<path class="st3" d="M30.6,28.7l-0.5,2.1c-0.2,0.8-0.9,1.3-1.7,1.1c0,0-0.1,0-0.1,0c-2.1-0.7-4.1-1.9-5.6-3.5
		c-1.5-1.5-2.6-3.2-3.3-5.2c-0.8-2.1-1.1-4.4-0.8-6.6c0.1-0.8,0.8-1.4,1.6-1.3c0,0,0.1,0,0.1,0l2.1,0.5c0.7,0.2,1.2,0.8,1.1,1.5
		c-0.1,0.7,0,1.4,0.1,2.1c0.1,0.6-0.2,1.1-0.7,1.4l-1.1,0.7c0.6,2,1.8,3.8,3.3,5.2l1.1-0.7c0.5-0.3,1.1-0.3,1.6,0
		c0.6,0.4,1.2,0.7,1.9,0.9C30.4,27.3,30.8,28,30.6,28.7z"/>
</g>
</svg>
