<?xml version="1.0" encoding="utf-8"?>
<!-- Generator: Adobe Illustrator 19.0.0, SVG Export Plug-In . SVG Version: 6.00 Build 0)  -->
<svg version="1.1" id="Layer_1" xmlns="http://www.w3.org/2000/svg" xmlns:xlink="http://www.w3.org/1999/xlink" x="0px" y="0px"
	 viewBox="0 0 64 64" style="enable-background:new 0 0 64 64;" xml:space="preserve">
<style type="text/css">
	.st0{fill:#0ABBE5;}
	.st1{opacity:0.1;}
	.st2{fill:#FFFFFF;}
</style>
<circle id="XMLID_1_" class="st0" cx="32" cy="32" r="24"/>
<path id="XMLID_4_" class="st1" d="M46.2,33.1L34,20.9c-0.5-0.5-1.2-0.8-1.9-0.8h-9.5c-1.5,0-2.7,1.2-2.7,2.7v9.5
	c0,0.8,0.3,1.4,0.8,1.9l12.2,12.2c0.5,0.5,1.2,0.8,1.9,0.8s1.4-0.3,1.9-0.8l9.5-9.5c0.5-0.5,0.8-1.2,0.8-1.9
	C47,34.3,46.7,33.6,46.2,33.1z M26.2,28c-1.1,0-2-0.9-2-2s0.9-2,2-2c1.1,0,2,0.9,2,2S27.3,28,26.2,28z"/>
<path id="XMLID_31_" class="st2" d="M46.2,32.6L34,20.4c-0.5-0.5-1.2-0.8-1.9-0.8h-9.5c-1.5,0-2.7,1.2-2.7,2.7v9.5
	c0,0.8,0.3,1.4,0.8,1.9L32.9,46c0.5,0.5,1.2,0.8,1.9,0.8s1.4-0.3,1.9-0.8l9.5-9.5c0.5-0.5,0.8-1.2,0.8-1.9
	C47,33.8,46.7,33.1,46.2,32.6z M26.2,27.6c-1.1,0-2-0.9-2-2c0-1.1,0.9-2,2-2c1.1,0,2,0.9,2,2C28.2,26.7,27.3,27.6,26.2,27.6z"/>
</svg>
