<?xml version="1.0" encoding="utf-8"?>
<!-- Generator: Adobe Illustrator 19.0.0, SVG Export Plug-In . SVG Version: 6.00 Build 0)  -->
<svg version="1.1" id="Layer_1" xmlns="http://www.w3.org/2000/svg" xmlns:xlink="http://www.w3.org/1999/xlink" x="0px" y="0px"
	 viewBox="0 0 24 24" style="enable-background:new 0 0 24 24;" xml:space="preserve">
<style type="text/css">
	.st0{fill:#EBEDEF;}
	.st1{fill:#888EA8;}
</style>
<polygon id="XMLID_13_" class="st0" points="7.1,5.5 3.8,5.6 2.9,7.2 2.7,14.7 3.3,18.1 7.5,18.8 16.4,18.9 20.4,18.4 21.4,16.7 
	21.4,12.4 21.1,6 18.3,5.3 "/>
<g id="Layer_17">
	<path id="XMLID_9_" class="st1" d="M19.3,4.8H5.1c-1.7,0-3,1.4-3,3v8.7c0,1.7,1.4,3,3,3h14.2c1.7,0,3-1.4,3-3V7.8
		C22.3,6.2,21,4.8,19.3,4.8z M19.3,6.4h0.1l-7.2,5.3L5,6.4h0.1H19.3z M20.8,16.6c0,0.8-0.7,1.5-1.5,1.5H5.1c-0.8,0-1.5-0.7-1.5-1.5
		V7.8c0-0.2,0-0.3,0.1-0.5l8,5.8c0.3,0.2,0.6,0.2,0.9,0l8-5.8c0,0.1,0.1,0.3,0.1,0.5L20.8,16.6z"/>
</g>
</svg>
