<?xml version="1.0" encoding="utf-8"?>
<!-- Generator: Adobe Illustrator 19.0.0, SVG Export Plug-In . SVG Version: 6.00 Build 0)  -->
<svg version="1.1" id="Layer_1" xmlns="http://www.w3.org/2000/svg" xmlns:xlink="http://www.w3.org/1999/xlink" x="0px" y="0px"
	 viewBox="0 0 17.9 20.6" style="enable-background:new 0 0 17.9 20.6;" xml:space="preserve">
<style type="text/css">
	.st0{fill:#FFFFFF;}
</style>
<g id="Shape_15_3_">
	<g id="XMLID_79_">
		<path id="XMLID_80_" class="st0" d="M17.3,15.3c-1-0.7-1.6-1.9-1.6-3.1V9.9c0-2.7-1.7-4.9-4.2-5.8c0.2-0.4,0.3-0.8,0.3-1.2
			c0-1.4-1.2-2.6-2.7-2.6c-1.5,0-2.7,1.1-2.7,2.6c0,0.4,0.1,0.9,0.3,1.2C4.5,5,2.8,7.2,2.8,9.9v2.4c0,1.2-0.6,2.4-1.6,3.1
			c-0.3,0.2-0.5,0.6-0.3,1c0.1,0.4,0.5,0.6,0.9,0.6h4.9v0.8c0,1.4,1.2,2.6,2.7,2.6c1.5,0,2.7-1.1,2.6-2.6v-0.8h4.9c0,0,0,0,0,0
			c0.5,0,0.9-0.4,0.9-0.9C17.8,15.7,17.6,15.5,17.3,15.3z M8.4,2.8C8.4,2.4,8.8,2,9.3,2c0.5,0,0.8,0.4,0.8,0.8
			c0,0.4-0.4,0.8-0.8,0.8c0,0,0,0,0,0s0,0,0,0C8.8,3.6,8.4,3.3,8.4,2.8z M10.1,17.7c0,0.4-0.4,0.8-0.8,0.8c-0.5,0-0.8-0.4-0.8-0.8
			v-0.8h1.7V17.7z M3.7,15.2c0.6-0.9,0.9-1.9,0.9-2.9V9.9c0-2.5,2.1-4.5,4.7-4.5c2.6,0,4.7,2,4.7,4.5v2.4c0,1,0.3,2.1,0.9,2.9H3.7z"
			/>
	</g>
</g>
</svg>
