<?xml version="1.0" encoding="utf-8"?>
<!-- Generator: Adobe Illustrator 19.0.0, SVG Export Plug-In . SVG Version: 6.00 Build 0)  -->
<svg version="1.1" id="Layer_1" xmlns="http://www.w3.org/2000/svg" xmlns:xlink="http://www.w3.org/1999/xlink" x="0px" y="0px"
	 viewBox="0 0 23.9 16.8" style="enable-background:new 0 0 23.9 16.8;" xml:space="preserve">
<style type="text/css">
	.st0{fill:#D4D4D4;}
</style>
<g id="Ellipse_7_copy_2">
	<g id="XMLID_36_">
		<path id="XMLID_37_" class="st0" d="M20,5.4c-1.7,0-3,1.3-3,3s1.3,3,3,3c1.7,0,3-1.3,3-3S21.6,5.4,20,5.4z M12,5.4
			c-1.7,0-3,1.3-3,3s1.3,3,3,3c1.7,0,3-1.3,3-3S13.6,5.4,12,5.4z M4,5.4c-1.7,0-3,1.3-3,3s1.3,3,3,3c1.7,0,3-1.3,3-3S5.6,5.4,4,5.4z
			"/>
	</g>
</g>
</svg>
