<?xml version="1.0" encoding="utf-8"?>
<!-- Generator: Adobe Illustrator 19.0.0, SVG Export Plug-In . SVG Version: 6.00 Build 0)  -->
<svg version="1.1" id="Layer_1" xmlns="http://www.w3.org/2000/svg" xmlns:xlink="http://www.w3.org/1999/xlink" x="0px" y="0px"
	 viewBox="0 0 64 64" style="enable-background:new 0 0 64 64;" xml:space="preserve">
<style type="text/css">
	.st0{fill:#FFFFFF;}
	.st1{fill:#9D9EA6;stroke:#FFFFFF;stroke-width:0.75;stroke-miterlimit:10;}
</style>
<circle id="XMLID_3_" class="st0" cx="31.8" cy="31.4" r="30.8"/>
<g id="XMLID_4_">
	<path id="XMLID_13_" class="st1" d="M41.9,17.8H27.5c-0.5-0.6-1.3-0.9-2.1-0.9c-1.6,0-2.9,1.3-2.9,2.8c0,0,0,0,0,0v8.4
		c0.1,0.5,0.5,0.9,1.1,0.9c0.5,0,0.8-0.4,0.9-0.9v-8.4c0-0.5,0.4-0.9,0.9-0.9c0.5,0,0.9,0.4,0.9,0.9v7.5c0.1,1.5-1.1,2.9-2.6,3
		s-2.9-1.1-3-2.6c0-0.1,0-0.2,0-0.3v-7.5c0-0.5-0.4-1-1-1c-0.5,0-1,0.4-1,1v7.5c0,2.4,1.8,4.4,4.2,4.7v11.3c0,1.6,1.3,2.9,2.9,2.9
		h15.9c1.6,0,2.8-1.3,2.8-2.9V20.6C44.7,19.1,43.4,17.8,41.9,17.8z M42.8,43.1c0,0.5-0.4,0.9-0.9,0.9l0,0H25.9
		c-0.5,0-0.9-0.4-0.9-0.9l0,0V31.7c1.6-0.5,2.8-1.8,3.2-3.5h11.6c0.5-0.1,0.9-0.5,0.9-1.1c0-0.5-0.4-0.8-0.9-0.9H28.3v-6.5h13.5
		c0.5,0,0.9,0.4,0.9,0.9v0L42.8,43.1z"/>
	<path id="XMLID_6_" class="st1" d="M39.7,30.9H28c-0.5,0-1,0.4-1,1c0,0.5,0.4,1,1,1h11.7c0.5,0,1-0.4,1-1
		C40.7,31.3,40.3,30.9,39.7,30.9z"/>
	<path id="XMLID_5_" class="st1" d="M39.7,35.6H28c-0.5-0.1-1,0.3-1.1,0.9c-0.1,0.5,0.3,1,0.9,1.1c0.1,0,0.1,0,0.2,0h11.7
		c0.5-0.1,0.9-0.5,0.9-1.1C40.6,36,40.2,35.6,39.7,35.6z"/>
</g>
</svg>
