<?xml version="1.0" encoding="utf-8"?>
<!-- Generator: Adobe Illustrator 19.0.0, SVG Export Plug-In . SVG Version: 6.00 Build 0)  -->
<svg version="1.1" id="Layer_1" xmlns="http://www.w3.org/2000/svg" xmlns:xlink="http://www.w3.org/1999/xlink" x="0px" y="0px"
	 viewBox="0 0 32 32" style="enable-background:new 0 0 32 32;" xml:space="preserve">
<style type="text/css">
	.st0{fill:#FFFFFF;}
</style>
<g id="XMLID_1_">
	<g id="Shape_14">
		<g id="XMLID_32_">
			<path id="XMLID_33_" class="st0" d="M17.1,3.2v0.3c0,1.6,1,3.1,2.6,3.6c0.3,0.1,0.6,0.2,0.9,0.4c0.5,0.3,1.1,0.4,1.7,0.4
				c1,0,2-0.4,2.7-1.1l0.2-0.2l1,1L26,7.8c-1.2,1.2-1.5,2.9-0.8,4.4c0.1,0.3,0.3,0.6,0.4,0.9c0.5,1.5,2,2.6,3.6,2.6h0.3v1.4h-0.3
				c-1.6,0-3.1,1-3.6,2.6c-0.1,0.3-0.2,0.6-0.4,0.9c-0.7,1.5-0.4,3.2,0.7,4.4l0.2,0.2l-1,1l-0.2-0.2c-0.7-0.7-1.7-1.1-2.7-1.1
				c-0.6,0-1.2,0.1-1.7,0.4c-0.3,0.1-0.6,0.3-0.9,0.4c-1.5,0.5-2.6,2-2.6,3.6v0.3h-1.4v-0.4c0-1.6-1-3.1-2.6-3.6
				c-0.3-0.1-0.6-0.2-0.9-0.4c-0.5-0.3-1.1-0.4-1.7-0.4c-1,0-2,0.4-2.7,1.1l-0.2,0.2l-1-1l0.2-0.2C8,23.7,8.3,22,7.6,20.5
				c-0.1-0.3-0.3-0.6-0.4-0.9c-0.5-1.5-2-2.6-3.6-2.6H3.2v-1.4h0.3c1.6,0,3.1-1,3.6-2.6c0.1-0.3,0.2-0.6,0.4-0.9
				C8.3,10.7,8,9,6.8,7.8L6.6,7.6l1-1l0.2,0.2c0.7,0.7,1.7,1.1,2.7,1.1c0.6,0,1.2-0.1,1.7-0.4c0.3-0.1,0.6-0.3,0.9-0.4
				c1.5-0.5,2.6-2,2.6-3.6V3.2H17.1 M18.2,0.7h-3.7c-0.7,0-1.4,0.6-1.4,1.3v1.4c0,0.6-0.4,1.1-0.9,1.3c-0.4,0.1-0.8,0.3-1.1,0.5
				c-0.2,0.1-0.4,0.1-0.6,0.1c-0.4,0-0.7-0.1-1-0.4l-1-1c-0.3-0.3-0.6-0.4-1-0.4c-0.3,0-0.7,0.1-1,0.4c0,0,0,0,0,0L4,6.6
				C3.5,7.2,3.5,8,4,8.5c0,0,0,0,0,0l1,1c0.4,0.4,0.5,1,0.3,1.5c-0.2,0.4-0.3,0.8-0.5,1.1c-0.2,0.5-0.7,0.9-1.3,0.9H2.1
				c-0.7,0-1.4,0.6-1.4,1.3v3.7c0,0.7,0.6,1.3,1.4,1.3h1.4c0.6,0,1.1,0.4,1.3,0.9c0.1,0.4,0.3,0.8,0.5,1.1c0.3,0.5,0.1,1.1-0.3,1.5
				l-1,1c-0.5,0.5-0.5,1.4,0,1.9c0,0,0,0,0,0l2.6,2.6c0.3,0.3,0.6,0.4,1,0.4c0.3,0,0.7-0.1,1-0.4c0,0,0,0,0,0l1-1
				c0.3-0.3,0.6-0.4,1-0.4c0.2,0,0.4,0,0.6,0.1c0.4,0.2,0.8,0.3,1.1,0.5c0.5,0.2,0.9,0.7,0.9,1.3v1.5c0,0.7,0.6,1.3,1.4,1.3h3.7
				c0.7,0,1.4-0.6,1.4-1.3v-1.5c0-0.6,0.4-1.1,0.9-1.3c0.4-0.1,0.8-0.3,1.1-0.5c0.2-0.1,0.4-0.1,0.6-0.1c0.4,0,0.7,0.1,1,0.4l1,1
				c0.3,0.3,0.6,0.4,1,0.4c0.3,0,0.7-0.1,1-0.4c0,0,0,0,0,0l2.6-2.6c0.5-0.5,0.5-1.4,0-1.9c0,0,0,0,0,0l-1-1c-0.4-0.4-0.5-1-0.3-1.5
				c0.2-0.4,0.3-0.8,0.5-1.1c0.2-0.5,0.7-0.9,1.3-0.9h1.4c0.7,0,1.4-0.6,1.4-1.3v-3.7c0-0.7-0.6-1.3-1.3-1.4h-1.4
				c-0.6,0-1.1-0.4-1.3-0.9c-0.1-0.4-0.3-0.8-0.5-1.1c-0.3-0.5-0.1-1.1,0.3-1.5l1-1c0.5-0.5,0.5-1.4,0-1.9c0,0,0,0,0,0L26.1,4
				c-0.3-0.3-0.6-0.4-1-0.4c-0.3,0-0.7,0.1-1,0.4c0,0,0,0,0,0l-1,1c-0.3,0.3-0.6,0.4-1,0.4c-0.2,0-0.4,0-0.6-0.1
				c-0.4-0.2-0.8-0.3-1.1-0.5c-0.5-0.2-0.9-0.7-0.9-1.3V2.1C19.6,1.4,19,0.7,18.2,0.7L18.2,0.7z"/>
		</g>
	</g>
	<g id="Ellipse_8">
		<g id="XMLID_25_">
			<path id="XMLID_26_" class="st0" d="M16.4,14c1.3,0,2.4,1.1,2.4,2.4s-1.1,2.4-2.4,2.4S14,17.7,14,16.4S15,14,16.4,14 M16.4,11.5
				c-2.7,0-4.9,2.2-4.9,4.9c0,2.7,2.2,4.9,4.9,4.9c2.7,0,4.9-2.2,4.9-4.9C21.3,13.7,19.1,11.5,16.4,11.5L16.4,11.5z"/>
		</g>
	</g>
</g>
</svg>
