<?xml version="1.0" encoding="utf-8"?>
<!-- Generator: Adobe Illustrator 19.0.0, SVG Export Plug-In . SVG Version: 6.00 Build 0)  -->
<svg version="1.1" id="Layer_1" xmlns="http://www.w3.org/2000/svg" xmlns:xlink="http://www.w3.org/1999/xlink" x="0px" y="0px"
	 viewBox="0 0 64 64" style="enable-background:new 0 0 64 64;" xml:space="preserve">
<style type="text/css">
	.st0{fill-rule:evenodd;clip-rule:evenodd;fill:#FFFFFF;}
	.st1{fill:url(#XMLID_46_);}
	.st2{fill:url(#XMLID_47_);}
	.st3{fill:url(#XMLID_48_);}
	.st4{fill:url(#XMLID_49_);}
	.st5{fill:url(#XMLID_50_);}
</style>
<g id="Ellipse_5">
	<g id="XMLID_30_">
		<circle id="XMLID_31_" class="st0" cx="31.9" cy="32.5" r="31.5"/>
	</g>
</g>
<g id="XMLID_8_">
	<linearGradient id="XMLID_46_" gradientUnits="userSpaceOnUse" x1="32.1356" y1="34.0048" x2="32.1356" y2="32.0756">
		<stop  offset="0" style="stop-color:#894D9E"/>
		<stop  offset="1" style="stop-color:#3E3795"/>
	</linearGradient>
	<path id="XMLID_18_" class="st1" d="M24.3,32.1v1.8l0.1,0.2H40v-1.9H24.3z"/>
	<linearGradient id="XMLID_47_" gradientUnits="userSpaceOnUse" x1="34.2216" y1="29.7637" x2="34.2216" y2="27.8346">
		<stop  offset="0" style="stop-color:#894D9E"/>
		<stop  offset="1" style="stop-color:#3E3795"/>
	</linearGradient>
	<rect id="XMLID_17_" x="28.4" y="27.8" class="st2" width="11.6" height="1.9"/>
	<linearGradient id="XMLID_48_" gradientUnits="userSpaceOnUse" x1="31.3279" y1="25.5227" x2="31.3279" y2="23.5935">
		<stop  offset="0" style="stop-color:#894D9E"/>
		<stop  offset="1" style="stop-color:#3E3795"/>
	</linearGradient>
	<rect id="XMLID_16_" x="22.7" y="23.6" class="st3" width="17.4" height="1.9"/>
	<linearGradient id="XMLID_49_" gradientUnits="userSpaceOnUse" x1="34.2216" y1="21.274" x2="34.2216" y2="19.3448">
		<stop  offset="0" style="stop-color:#894D9E"/>
		<stop  offset="1" style="stop-color:#3E3795"/>
	</linearGradient>
	<rect id="XMLID_15_" x="28.4" y="19.3" class="st4" width="11.6" height="1.9"/>
	<linearGradient id="XMLID_50_" gradientUnits="userSpaceOnUse" x1="30.8877" y1="51.0482" x2="30.8877" y2="13.8483">
		<stop  offset="0" style="stop-color:#894D9E"/>
		<stop  offset="1" style="stop-color:#3E3795"/>
	</linearGradient>
	<path id="XMLID_9_" class="st5" d="M33.9,51C34,51,34.1,51,34.2,51c0.1,0,0.2,0,0.3-0.1l1.7-1l1.7,1c0.3,0.2,0.6,0.1,0.8-0.2
		c0.1-0.1,0.1-0.2,0.1-0.3v-2.3h3.4c1,0,1.9-0.8,1.9-1.8V15.7c0-1-0.8-1.9-1.9-1.9H24.5c-0.2,0-0.3,0.1-0.4,0.2l-6.3,6.3
		c-0.1,0.1-0.2,0.3-0.2,0.4v26.9c0,0.3,0.2,0.6,0.6,0.6c0,0,0,0,0,0h15.4v2.3C33.6,50.7,33.8,50.9,33.9,51z M33,42.3l-0.9-0.8
		l0.9-0.8c0.2-0.1,0.2-0.4,0.2-0.6l-0.2-1.1L34,39c0.2,0,0.4-0.2,0.5-0.4l0.5-1l1,0.6c0.2,0.1,0.4,0.1,0.6,0l1-0.6l0.4,1
		c0.1,0.2,0.3,0.3,0.5,0.4l1.1,0.1l-0.3,1.1c0,0.2,0,0.4,0.2,0.6l0.8,0.8l-0.8,0.8c-0.2,0.1-0.2,0.4-0.2,0.6l0.3,1.1L38.4,44
		c-0.2,0-0.4,0.2-0.5,0.4l-0.2,0.5l0,0l-0.2,0.5l-1-0.6c-0.1-0.1-0.2-0.1-0.3-0.1l0,0c-0.1,0-0.2,0-0.3,0.1l-1,0.6L34.7,45l0,0
		l-0.2-0.5c-0.1-0.2-0.3-0.3-0.5-0.4l-1.1-0.1l0.3-1.1C33.2,42.6,33.1,42.4,33,42.3z M37.7,49.5c-1-0.5-1.3-0.9-1.7-0.6l-1.2,0.6
		v-2.6c0.2,0,0.2-0.1,1.4-0.8l1.3,0.8c0.1,0,0.1,0,0.2,0.1l0,0L37.7,49.5z M23.9,15.8v3.8c0,0.3-0.2,0.5-0.5,0.5h-3.7L23.9,15.8z
		 M18.8,47V21.3h4.6c0.9,0,1.7-0.7,1.7-1.7c0,0,0,0,0,0l0,0V15h17.2c0.4,0,0.7,0.3,0.7,0.7v30.6c0,0.4-0.3,0.7-0.7,0.7h-3.4v-1.7
		l0.1-0.1l1.4-0.2c0.2,0,0.3-0.1,0.4-0.2c0.1-0.1,0.1-0.3,0.1-0.5l-0.3-1.4l1.1-1c0.1-0.1,0.2-0.3,0.2-0.4c0-0.2-0.1-0.3-0.2-0.4
		l-1.1-1l0.3-1.4c0-0.2,0-0.3-0.1-0.5c-0.1-0.1-0.2-0.2-0.4-0.2l-1.4-0.1l-0.6-1.3c-0.1-0.2-0.2-0.3-0.4-0.3c-0.2,0-0.3,0-0.5,0.1
		l-1.2,0.7L35,36.3c-0.1-0.1-0.3-0.1-0.5-0.1c-0.2,0.1-0.3,0.2-0.4,0.3l-0.6,1.3L32.1,38c-0.2,0-0.3,0.1-0.4,0.2
		c-0.1,0.1-0.1,0.3-0.1,0.5l0.3,1.4l-1,1c-0.1,0.1-0.2,0.3-0.2,0.4c0,0.2,0.1,0.3,0.2,0.4l1.1,1l-0.3,1.4c0,0.2,0,0.3,0.1,0.5
		c0.1,0.1,0.2,0.2,0.4,0.2l1.4,0.1l0.1,0.1V47L18.8,47z"/>
</g>
</svg>
