<?xml version="1.0" encoding="utf-8"?>
<!-- Generator: Adobe Illustrator 19.0.0, SVG Export Plug-In . SVG Version: 6.00 Build 0)  -->
<svg version="1.1" id="Layer_1" xmlns="http://www.w3.org/2000/svg" xmlns:xlink="http://www.w3.org/1999/xlink" x="0px" y="0px"
	 viewBox="-20 22 21.1 21" style="enable-background:new -20 22 21.1 21;" xml:space="preserve">
<style type="text/css">
	.st0{fill:#888EA8;}
</style>
<path id="XMLID_18_" class="st0" d="M-17.9,41.5c-0.3,0-0.6-0.2-0.6-0.6c0,0,0,0,0-0.1l0.4-3.9c0-0.1,0.1-0.2,0.2-0.3l13.1-13.1
	c0.7-0.7,1.8-0.7,2.5,0l0,0l1.7,1.7c0.7,0.7,0.7,1.8,0,2.5l0,0l-13.1,13.1c-0.1,0.1-0.2,0.1-0.3,0.2L-17.9,41.5L-17.9,41.5z
	 M-14,40.5L-14,40.5z M-17,37.3l-0.3,3l3-0.3l13-13c0.3-0.3,0.3-0.7,0-1l0,0l-1.8-1.8c-0.3-0.3-0.7-0.3-1,0l0,0L-17,37.3z"/>
</svg>
