<?xml version="1.0" encoding="utf-8"?>
<!-- Generator: Adobe Illustrator 19.0.0, SVG Export Plug-In . SVG Version: 6.00 Build 0)  -->
<svg version="1.1" id="Layer_1" xmlns="http://www.w3.org/2000/svg" xmlns:xlink="http://www.w3.org/1999/xlink" x="0px" y="0px"
	 viewBox="0 0 16 16" style="enable-background:new 0 0 16 16;" xml:space="preserve">
<style type="text/css">
	.st0{fill:#D3D3D3;}
</style>
<g id="Layer_5">
	<path class="st0" d="M13.4,2.8h-1.4v0.9h1.4c0.5,0,1,0.4,1,1V13c0,0.5-0.4,1-1,1H3c-0.5,0-1-0.4-1-1V4.7c0-0.5,0.4-1,1-1h1.4V2.8H3
		c-1,0-1.9,0.8-1.9,1.9V13c0,1,0.8,1.9,1.9,1.9h10.4c1,0,1.9-0.8,1.9-1.9V4.7C15.2,3.6,14.4,2.8,13.4,2.8z M11.3,3.7V2.8H5.1v0.9
		H11.3z"/>
	<path class="st0" d="M14.8,4.7v2H1.6v-2c0-0.8,0.6-1.4,1.4-1.4h1.4v1.1c0,0,0,0,0,0H5c0,0,0,0,0,0V3.2h6.2v1.1c0,0,0,0,0,0h0.6
		c0,0,0,0,0,0V3.2h1.4C14.1,3.2,14.8,3.9,14.8,4.7z"/>
	<path class="st0" d="M13.4,2.8h-1.4v0.9h1.4c0.5,0,1,0.4,1,1v1.5H2V4.7c0-0.5,0.4-1,1-1h1.4V2.8H3c-1,0-1.9,0.8-1.9,1.9v2.4h14.1
		V4.7C15.2,3.6,14.4,2.8,13.4,2.8z M11.3,3.7V2.8H5.1v0.9H11.3z"/>
	<path class="st0" d="M5.1,3.7v0.6c0,0,0,0,0,0H4.4c0,0,0,0,0,0V3.7H3.5v0.6c0,0.5,0.4,1,1,1H5c0.5,0,1-0.4,1-1V3.7H5.1z M5,1.2H4.4
		c-0.5,0-1,0.4-1,1v2.1c0,0.5,0.4,1,1,1H5c0.5,0,1-0.4,1-1V2.2C6,1.6,5.6,1.2,5,1.2z M5.1,4.3C5.1,4.3,5.1,4.4,5.1,4.3l-0.6,0
		c0,0,0,0,0,0V2.2c0,0,0,0,0,0c0,0,0,0,0,0H5c0,0,0,0,0,0V4.3z"/>
	<path class="st0" d="M11.9,1.2h-0.6c-0.5,0-1,0.4-1,1v2.1c0,0.5,0.4,1,1,1h0.6c0.5,0,1-0.4,1-1V2.2C12.9,1.6,12.4,1.2,11.9,1.2z
		 M11.9,4.3C11.9,4.3,11.9,4.4,11.9,4.3l-0.6,0c0,0,0,0,0,0V2.2c0,0,0,0,0,0h0.6c0,0,0,0,0,0c0,0,0,0,0,0V4.3z"/>
	<rect x="3.3" y="8" class="st0" width="2" height="1.6"/>
	<rect x="7.2" y="8" class="st0" width="2" height="1.6"/>
	<rect x="11" y="8" class="st0" width="2" height="1.6"/>
	<rect x="3.3" y="11.3" class="st0" width="2" height="1.6"/>
	<rect x="7.2" y="11.3" class="st0" width="2" height="1.6"/>
	<rect x="11" y="11.3" class="st0" width="2" height="1.6"/>
</g>
</svg>
