<?xml version="1.0" encoding="utf-8"?>
<!-- Generator: Adobe Illustrator 19.0.0, SVG Export Plug-In . SVG Version: 6.00 Build 0)  -->
<svg version="1.1" id="Layer_1" xmlns="http://www.w3.org/2000/svg" xmlns:xlink="http://www.w3.org/1999/xlink" x="0px" y="0px"
	 viewBox="0 0 149.3 125.7" style="enable-background:new 0 0 149.3 125.7;" xml:space="preserve">
<style type="text/css">
	.st0{fill:none;stroke:#3717AB;stroke-width:5;stroke-miterlimit:10;}
	.st1{fill:none;stroke:#999999;stroke-width:5;stroke-miterlimit:10;}
</style>
<path id="XMLID_3_" class="st0" d="M85,22.9v8v25.3"/>
<path id="XMLID_4_" class="st0" d="M57.7,16.5H46H9.3"/>
<path id="XMLID_5_" class="st0" d="M40.5,28.5h-5.9H15.8"/>
<path id="XMLID_2_" class="st0" d="M60.9,58H17c-5.5,0-10-4.5-10-10V14.7c0-5.5,4.5-10,10-10h40.4"/>
<path id="XMLID_6_" class="st1" d="M89.3,120.7c0,0,4.7-12-3.7-21.7s-25-28.3-25-28.3S54.3,62,62.3,57c8-5,17,7.3,17,7.3l8,7.7
	c0,0,7.2,5,15.7-1c9-6.3,10-14,10-14s4.7-16.3-11.3-28.7c-6.3-4-15.3-7-25.3-4.7C65.3,24,59.3,11,71,6c10.3-1.3,61-7,60,52.3"/>
<path id="XMLID_1_" class="st1" d="M143,123.3V59.7c0,0,1-17.7-15.7-27.3"/>
</svg>
