<?xml version="1.0" encoding="utf-8"?>
<!-- Generator: Adobe Illustrator 19.0.0, SVG Export Plug-In . SVG Version: 6.00 Build 0)  -->
<svg version="1.1" id="Layer_1" xmlns="http://www.w3.org/2000/svg" xmlns:xlink="http://www.w3.org/1999/xlink" x="0px" y="0px"
	 viewBox="0 0 21.1 21" style="enable-background:new 0 0 21.1 21;" xml:space="preserve">
<style type="text/css">
	.st0{fill:#888EA8;stroke:#FFFFFF;stroke-width:0.75;stroke-miterlimit:10;}
</style>
<path class="st0" d="M18.2,3.8h-3.8V3.2c0-1.5-1.2-2.8-2.8-2.8c0,0,0,0,0,0H8.7C7.2,0.5,6,1.7,6,3.2c0,0,0,0,0,0v0.6H2.2
	c-0.5,0-0.8,0.4-0.8,0.8s0.4,0.8,0.8,0.8h1.3V17c0,1.5,1.2,2.8,2.8,2.8h7.9c1.5,0,2.8-1.2,2.8-2.8V5.5h1.3c0.5,0,0.8-0.4,0.8-0.8
	S18.6,3.8,18.2,3.8z M7.7,3.2c0-0.6,0.5-1.1,1.1-1.1c0,0,0,0,0,0h2.9c0.6,0,1.1,0.5,1.1,1.1v0.6h-5V3.2z M15.2,17
	c0,0.6-0.5,1.1-1.1,1.1H6.2c-0.6,0-1.1-0.5-1.1-1.1V5.5h10.1V17z"/>
<path class="st0" d="M8.1,7.4c-0.5,0-0.8,0.4-0.8,0.8v7.6c0,0.5,0.4,0.8,0.8,0.8c0.5,0,0.8-0.4,0.8-0.8V8.2C8.9,7.8,8.5,7.4,8.1,7.4
	z"/>
<path class="st0" d="M12.3,7.4c-0.5,0-0.8,0.4-0.8,0.8v7.6c0,0.5,0.4,0.8,0.8,0.8c0.5,0,0.8-0.4,0.8-0.8V8.2
	C13.1,7.8,12.7,7.4,12.3,7.4z"/>
</svg>
