<?xml version="1.0" encoding="utf-8"?>
<!-- Generator: Adobe Illustrator 19.0.0, SVG Export Plug-In . SVG Version: 6.00 Build 0)  -->
<svg version="1.1" id="Layer_1" xmlns="http://www.w3.org/2000/svg" xmlns:xlink="http://www.w3.org/1999/xlink" x="0px" y="0px"
	 viewBox="0 0 32 32" style="enable-background:new 0 0 32 32;" xml:space="preserve">
<style type="text/css">
	.st0{fill:#FFFFFF;}
</style>
<path id="XMLID_2_" class="st0" d="M29.4,10.3h-2.9l-0.8-4.8c-0.2-1.1-1.3-1.8-2.4-1.7L1.9,7.6C0.8,7.8,0.1,8.9,0.3,10l2.3,12.9
	c0.1,0.5,0.4,1,0.8,1.3c0.3,0.2,0.7,0.4,1.2,0.4c0.1,0,0.2,0,0.4,0l0.8-0.1v1c0,1.1,0.9,2,2,2h21.7c1.1,0,2-0.9,2-2V12.3
	C31.4,11.2,30.5,10.3,29.4,10.3z M29.5,12.3v1.9H7.6l0.1-2L29.5,12.3z M4.5,22.6L2.5,11.7L2.2,9.6l21.5-3.7l0.8,4.4H7.7
	c-1.1,0-2,0.9-2,2v10.1L4.5,22.6z M29.4,25.5L7.6,25.4v-7.7h21.9L29.4,25.5C29.5,25.5,29.5,25.5,29.4,25.5z"/>
</svg>
