<?xml version="1.0" encoding="utf-8"?>
<!-- Generator: Adobe Illustrator 19.0.0, SVG Export Plug-In . SVG Version: 6.00 Build 0)  -->
<svg version="1.1" id="Layer_1" xmlns="http://www.w3.org/2000/svg" xmlns:xlink="http://www.w3.org/1999/xlink" x="0px" y="0px"
	 viewBox="0 0 24 24" style="enable-background:new 0 0 24 24;" xml:space="preserve">
<style type="text/css">
	.st0{fill:#EBEDEF;stroke:#888EA8;stroke-width:1.5;stroke-miterlimit:10;}
</style>
<path id="XMLID_2_" class="st0" d="M21,17v2.7c0,1-0.8,1.8-1.8,1.8c-0.1,0-0.1,0-0.2,0c-2.8-0.3-5.5-1.3-7.9-2.8
	c-2.2-1.4-4.1-3.3-5.5-5.5c-1.5-2.4-2.5-5.1-2.8-7.9c-0.1-1,0.6-1.9,1.7-2c0.1,0,0.1,0,0.2,0h2.7c0.9,0,1.7,0.7,1.8,1.6
	c0.1,0.9,0.3,1.7,0.6,2.6c0.3,0.7,0.1,1.4-0.4,1.9l-1.2,1.2c1.3,2.3,3.2,4.2,5.5,5.5l1.2-1.2c0.5-0.5,1.3-0.7,1.9-0.4
	c0.8,0.3,1.7,0.5,2.6,0.6C20.4,15.2,21.1,16,21,17z"/>
</svg>
