<?xml version="1.0" encoding="utf-8"?>
<!-- Generator: Adobe Illustrator 19.0.0, SVG Export Plug-In . SVG Version: 6.00 Build 0)  -->
<svg version="1.1" id="Layer_1" xmlns="http://www.w3.org/2000/svg" xmlns:xlink="http://www.w3.org/1999/xlink" x="0px" y="0px"
	 viewBox="0 0 24 24" style="enable-background:new 0 0 24 24;" xml:space="preserve">
<style type="text/css">
	.st0{fill-rule:evenodd;clip-rule:evenodd;fill:#B3BBCB;}
</style>
<g id="Shape_17">
	<g id="XMLID_61_">
		<path id="XMLID_62_" class="st0" d="M23.4,20.4l-6.1-6.1c0.9-1.4,1.4-3.1,1.4-4.9c0-5.2-4.2-9.3-9.3-9.3C4.2,0,0,4.2,0,9.3
			c0,5.2,4.2,9.3,9.3,9.3c1.8,0,3.5-0.5,4.9-1.4l6.1,6.1c0.8,0.8,2.2,0.8,3,0C24.2,22.6,24.2,21.2,23.4,20.4z M9.3,16
			c-3.7,0-6.7-3-6.7-6.7c0-3.7,3-6.7,6.7-6.7c3.7,0,6.7,3,6.7,6.7C16,13,13,16,9.3,16z"/>
	</g>
</g>
</svg>
