<?xml version="1.0" encoding="utf-8"?>
<!-- Generator: Adobe Illustrator 19.0.0, SVG Export Plug-In . SVG Version: 6.00 Build 0)  -->
<svg version="1.1" id="Layer_1" xmlns="http://www.w3.org/2000/svg" xmlns:xlink="http://www.w3.org/1999/xlink" x="0px" y="0px"
	 viewBox="0 0 22 20" style="enable-background:new 0 0 22 20;" xml:space="preserve">
<style type="text/css">
	.st0{opacity:0.3;}
</style>
<g id="XMLID_41_" class="st0">
	<g id="Icon-Credit-Card" transform="translate(128.000000, 532.000000)">
		<path id="Fill-7_1_" d="M-109.1-514.3h-16.1c-1,0-1.7-0.8-1.7-1.7v-11.6c0-1,0.8-1.7,1.7-1.7h16.1c1,0,1.7,0.8,1.7,1.7v11.6
			C-107.4-515.1-108.1-514.3-109.1-514.3L-109.1-514.3z M-125.3-528.2c-0.3,0-0.6,0.2-0.6,0.6v11.6c0,0.3,0.2,0.6,0.6,0.6h16.1
			c0.3,0,0.6-0.2,0.6-0.6v-11.6c0-0.3-0.2-0.6-0.6-0.6H-125.3L-125.3-528.2z"/>
		<polygon id="Fill-8_1_" points="-126.4,-527 -107.9,-527 -107.9,-523.5 -126.4,-523.5 		"/>
		<polygon id="Fill-9_1_" points="-124.7,-521.2 -124.1,-521.2 -124.1,-520.1 -124.7,-520.1 		"/>
		<polygon id="Fill-10_1_" points="-123.6,-521.2 -122.9,-521.2 -122.9,-520.1 -123.6,-520.1 		"/>
		<polygon id="Fill-11_1_" points="-122.4,-521.2 -121.8,-521.2 -121.8,-520.1 -122.4,-520.1 		"/>
		<polygon id="Fill-12_1_" points="-120.6,-521.2 -120.1,-521.2 -120.1,-520.1 -120.6,-520.1 		"/>
		<polygon id="Fill-13_1_" points="-119.5,-521.2 -118.9,-521.2 -118.9,-520.1 -119.5,-520.1 		"/>
		<polygon id="Fill-14_1_" points="-118.3,-521.2 -117.8,-521.2 -117.8,-520.1 -118.3,-520.1 		"/>
		<polygon id="Fill-15_1_" points="-116.6,-521.2 -116.1,-521.2 -116.1,-520.1 -116.6,-520.1 		"/>
		<polygon id="Fill-16_1_" points="-115.4,-521.2 -114.9,-521.2 -114.9,-520.1 -115.4,-520.1 		"/>
		<polygon id="Fill-17_1_" points="-114.3,-521.2 -113.7,-521.2 -113.7,-520.1 -114.3,-520.1 		"/>
		<polygon id="Fill-18_1_" points="-112.6,-521.2 -112,-521.2 -112,-520.1 -112.6,-520.1 		"/>
		<polygon id="Fill-19_1_" points="-111.4,-521.2 -110.8,-521.2 -110.8,-520.1 -111.4,-520.1 		"/>
		<polygon id="Fill-20_1_" points="-110.3,-521.2 -109.7,-521.2 -109.7,-520.1 -110.3,-520.1 		"/>
	</g>
</g>
</svg>
