<?xml version="1.0" encoding="utf-8"?>
<!-- Generator: Adobe Illustrator 19.0.0, SVG Export Plug-In . SVG Version: 6.00 Build 0)  -->
<svg version="1.1" id="Layer_1" xmlns="http://www.w3.org/2000/svg" xmlns:xlink="http://www.w3.org/1999/xlink" x="0px" y="0px"
	 viewBox="0 0 64 64" style="enable-background:new 0 0 64 64;" xml:space="preserve">
<style type="text/css">
	.st0{fill:#1598D9;}
	.st1{opacity:0.1;}
	.st2{fill:#FFFFFF;}
</style>
<circle id="XMLID_1_" class="st0" cx="32" cy="32" r="24"/>
<path id="XMLID_4_" class="st1" d="M18.1,30.7c0-5.7,6.3-10.3,14.1-10.3S46.2,25,46.2,30.7S39.9,41,32.1,41h-1.8
	c-1.8,1.7-5.3,3.4-8.8,3.4c0.9-0.9,1.8-3.4,1.8-5.7l0,0C20,36.8,18.1,33.8,18.1,30.7"/>
<path id="XMLID_2_" class="st2" d="M17.9,30.3C17.9,24.6,24.2,20,32,20s14.1,4.6,14.1,10.3S39.8,40.6,32,40.6h-1.8
	C28.5,42.3,25,44,21.4,44c0.9-0.9,1.8-3.4,1.8-5.7l0,0C19.9,36.4,17.9,33.4,17.9,30.3"/>
</svg>
